<?xml version="1.0" encoding="utf-8"?>
<!-- Generator: Adobe Illustrator 28.2.0, SVG Export Plug-In . SVG Version: 6.00 Build 0)  -->
<svg version="1.1" id="katman_1" xmlns="http://www.w3.org/2000/svg" xmlns:xlink="http://www.w3.org/1999/xlink" x="0px" y="0px"
	 viewBox="0 0 323.5 323.5" style="enable-background:new 0 0 323.5 323.5;" xml:space="preserve">
<style type="text/css">
	.st0{fill:#FFFFFF;}
	.st1{fill:#004B93;}
	.st2{fill-rule:evenodd;clip-rule:evenodd;fill:#004B93;}
	.st3{fill-rule:evenodd;clip-rule:evenodd;fill:#FFFFFF;}
</style>
<g>
	<circle class="st0" cx="161.8" cy="162.9" r="155.4"/>
	<path class="st1" d="M311,161.8c0,82.4-66.8,149.3-149.3,149.3S12.5,244.2,12.5,161.8S79.3,12.5,161.8,12.5
		C244.2,12.5,311,79.3,311,161.8"/>
	<path class="st1" d="M161.8,0C72.4,0,0,72.4,0,161.8s72.4,161.8,161.8,161.8c89.3,0,161.8-72.4,161.8-161.8
		C323.5,72.4,251.1,0,161.8,0 M316.2,161.8c0,85.3-69.1,154.4-154.4,154.4C76.5,316.2,7.3,247,7.3,161.8S76.5,7.3,161.8,7.3
		C247.1,7.3,316.2,76.5,316.2,161.8"/>
	<path class="st0" d="M161.8,25.3c-14.3,0-25.8,11.6-25.8,25.8S147.5,77,161.8,77c14.3,0,25.8-11.6,25.8-25.8S176,25.3,161.8,25.3
		 M161.7,80.2L161.7,80.2l-119.1,0l35.6,45.5h83.5l0,0c19.9,0,36.1,16.1,36.1,36.1s-16.1,36.1-36.1,36.1s-36.1-16.1-36.1-36.1
		c0-13,6.9-24.4,17.2-30.8H86.2c-3.9,9.5-6,19.9-6,30.8c0,45,36.5,81.6,81.6,81.6s81.6-36.5,81.6-81.6
		C243.3,116.7,206.8,80.2,161.7,80.2 M280.9,80.2l-35.6,45.5h-4.5c-9.6-21-27.3-37.5-49.1-45.5L280.9,80.2z"/>
	<path class="st2" d="M140.9,223.4l4.9-14.6l-1.2-0.4c-1.5,2-1.7,2.2-4.8,1.6l-0.5,1.4l3.3,1.1l-3.5,10.3L140.9,223.4z"/>
	<path class="st2" d="M155.8,220.3c0.3,0.4,0.5,1.2,0.4,2.1c-0.1,0.8-0.5,1.7-1.6,2.2c-0.6,0.3-1.1,0.3-2.2,0.3
		c-0.9-0.3-1.8-0.7-2.1-1.2c-0.4-0.5-0.6-1.2-0.5-2c0.1-0.8,0.3-1.5,0.8-1.9c0.6-0.6,1.6-0.9,2.6-0.9
		C154.2,219,155.2,219.5,155.8,220.3 M155.9,213.3c0.8,0.8,1,2.3,0,3.4c-0.5,0.6-1.6,0.8-2.6,0.6c-0.9-0.2-1.8-0.7-2.1-1.7
		c-0.2-0.8-0.1-2,0.9-2.7c0.6-0.4,1.3-0.5,2-0.4C154.9,212.6,155.5,212.9,155.9,213.3 M151.2,211.4c-1.9,1.1-2.3,3.2-1.8,4.7
		c0.2,0.6,0.7,1.1,1.4,1.8c-0.9,0.4-1.6,0.7-1.9,1.3c-0.6,0.5-1,1.5-1.1,2.6c-0.1,1.1,0.2,2.3,1,3.2c0.8,1,2.1,1.5,3.4,1.7
		c1.3,0.2,2.6,0,3.6-0.6c1.4-0.8,2.1-2,2.3-3.1c0.2-1.2-0.1-2.3-0.6-3c-0.3-0.6-0.8-1.3-1.4-1.5c0.6-0.3,1.1-0.8,1.5-1.1
		c1.1-1,1.3-3.8-0.3-5.2c-1-0.8-2.1-1.2-3.2-1.3C153,210.7,152,210.9,151.2,211.4"/>
	<path class="st2" d="M169.8,220.1c0.4,0.4,0.8,1.1,0.9,1.9c0.1,0.8-0.1,1.8-1,2.5c-0.5,0.4-1,0.6-2,0.8c-1-0.1-1.9-0.3-2.3-0.7
		c-0.5-0.4-0.8-1.1-1-1.8c-0.1-0.8,0-1.5,0.3-2c0.5-0.8,1.4-1.3,2.3-1.4C168,219.2,169.1,219.4,169.8,220.1 M168.3,213.2
		c0.9,0.6,1.5,2,0.8,3.3c-0.4,0.7-1.4,1.1-2.3,1.2c-1,0.1-2-0.3-2.4-1.2c-0.4-0.7-0.5-1.9,0.3-2.8c0.5-0.5,1.2-0.8,1.9-0.9
		C167.1,212.8,167.8,212.9,168.3,213.2 M163.3,212.5c-1.6,1.5-1.5,3.7-0.7,5c0.4,0.6,0.9,0.9,1.8,1.4c-0.8,0.6-1.3,1.1-1.5,1.7
		c-0.4,0.7-0.6,1.7-0.4,2.8c0.2,1.1,0.8,2.1,1.8,2.9c1,0.8,2.4,1,3.7,0.9c1.3-0.1,2.5-0.7,3.3-1.4c1.2-1.1,1.5-2.4,1.5-3.6
		c-0.1-1.2-0.6-2.2-1.3-2.8c-0.5-0.5-1.1-1-1.7-1.1c0.5-0.4,0.9-1,1.2-1.4c0.8-1.2,0.4-3.9-1.5-5c-1.1-0.5-2.4-0.7-3.4-0.5
		C164.9,211.4,164,211.8,163.3,212.5"/>
	<path class="st2" d="M177,218c0.4-1.1,1-1.8,2.3-2.3c1.6-0.6,3.6,0,4.4,2.9c0.4,1.7-0.3,3-1.8,3.7c-2.5,1.2-3.7-0.7-4-1.2l-1.8,0.7
		c0.2,0.3,1.1,2.8,4.5,2.7c0.7,0,1.4-0.2,2.1-0.5c0.7-0.4,1.4-0.8,1.9-1.4c1.1-1.2,1.7-3,1-5.3c-0.8-2.7-2.7-3.6-4.6-3.6
		c-0.9-0.1-1.7,0.2-2,0.4c-0.8,0.3-1.7,0.7-2.3,1.8l-0.9-4.2l6.1-2.2l-0.7-1.8l-7.5,2.7l1.7,8.3L177,218z"/>
	<path class="st3" d="M63.4,132.1l-0.7,2.2l2.4,0.7l0.7-2.2L63.4,132.1z M44.4,126.3l-0.7,2.2l17,5.2l0.7-2.2L44.4,126.3z"/>
	<polygon class="st3" points="57.8,136.8 55.9,146.5 44.4,133.4 42.4,133 39.8,146.4 41.8,146.8 43.9,136.3 55.3,149.4 57.3,149.8 
		59.8,137.2 	"/>
	<polygon class="st3" points="39.1,161.9 53.4,167 39,166.7 38.9,169.1 56.7,169.4 56.8,166.1 41.7,160.7 57,155.9 57,152.6 
		39.2,152.3 39.2,154.7 53.7,154.9 39.1,159.5 	"/>
	<path class="st3" d="M59.7,173.6l0.3,2.3l2.5-0.3l-0.3-2.3L59.7,173.6z M40,176l0.3,2.3l17.7-2.2l-0.3-2.3L40,176z"/>
	<path class="st3" d="M58.4,188.8c0.3,1.4,0.5,3.6-2.5,4c-2.3,0.3-3.1-1.1-3.4-2.5l-1.4-5.6l5.9-1.5L58.4,188.8z M41.2,184.9
		l0.6,2.2l7.4-1.9l1.4,5.7c0.9,3.6-2.5,3.4-4.5,4.1c-0.6,0.2-1.3,0.5-2.1,1l0.7,2.7l0.6-0.1c0.4-0.9,1.2-1.2,3.3-1.8
		c2.8-0.8,3.2-1.1,3.9-3.1c1.7,1.4,2.7,1.9,4.9,1.2c3.9-1.2,3.7-3.9,3-6.6l-1.9-7.7L41.2,184.9z"/>
	<path class="st3" d="M67.4,219.3c1.1-1.1,2-2.4,2.4-3.9c0.3-1,0.3-3.3-0.7-5.2c-1.1-1.9-2.9-3.2-3.9-3.5c-2.7-0.9-5.7-0.1-8,1
		c-2.2,1.2-4.5,3.3-5.3,6c-0.3,1-0.3,3.2,0.7,5.2c1.1,1.9,2.9,3.2,3.9,3.5c1.9,0.6,4,0.5,5.9-0.1l-1.1-2.1c-1.3,0.4-2.6,0.5-3.6,0.3
		c-1.5-0.3-2.6-1.2-3.2-2.4c-0.7-1.2-0.8-2.8-0.3-4.2c0.6-1.5,2.2-3.1,4.1-4.1c1.9-1.1,4.1-1.5,5.7-1.1c1.5,0.3,2.7,1.3,3.3,2.6
		c0.6,1.2,0.8,2.7,0.2,4c-0.3,0.6-0.7,1.3-1.3,1.9L67.4,219.3z"/>
	<polygon class="st3" points="66.9,239.7 68.3,241.6 82.5,230.8 81.1,229 75,233.6 69.5,226.3 75.7,221.7 74.3,219.9 60,230.6 
		61.4,232.4 67.9,227.5 73.4,234.8 	"/>
	<path class="st3" d="M88.2,240.3l-3.4,7.5l-4-3.8L88.2,240.3z M79,245l5,4.6l-2.3,5.1l1.9,1.8l7.6-17.3l-2.1-1.9l-16.9,8.6l1.8,1.7
		L79,245z"/>
	<polygon class="st3" points="96,265.2 107.9,255.7 100,267.8 102,269.1 111.7,254.2 109,252.4 96.4,262.3 100.4,246.8 97.6,245 
		87.9,260 89.9,261.3 97.8,249.1 94,263.9 	"/>
	<path class="st3" d="M113.8,265.9l4.2,1.7c2.2,0.9,3.5,1.9,3,3.9c-0.4,1.4-1.8,3.1-4.1,2.2l-5.3-2.2L113.8,265.9z M116.7,258.8
		l3.9,1.6c0.4,0.2,3,1.5,2.6,3.5c-0.3,1.1-1.2,3.1-4.2,1.9l-4.4-1.8L116.7,258.8z M116.8,275.8c1.3,0.5,4.6,0.3,6-2.8
		c1.5-3.3-0.8-5-1.1-5.4c1.8-0.1,3.3-1.4,3.8-3.3c0.2-0.9,0.3-1.7-0.2-2.7c-0.5-1.1-1.4-2.1-2.6-2.6l-7.3-3l-6.7,16.5L116.8,275.8z"
		/>
	<polygon class="st3" points="126.6,279.5 139.1,282.6 139.5,280.6 129.4,278.1 130.8,272.1 140.2,274.5 140.7,272.5 131.3,270.2 
		132.7,264.7 142.5,267.1 143,265.2 131,262.2 	"/>
	<path class="st3" d="M155.1,268.4c1.4,0.1,3.6,0.6,3,3.6c-0.4,2.3-1.9,2.6-3.5,2.5l-5.7-0.4l0.4-6.1L155.1,268.4z M146,283.6
		l2.3,0.2l0.5-7.6l5.8,0.4c3.7,0.3,2.5,3.5,2.5,5.6c0,0.7,0.1,1.4,0.4,2.3l2.8,0.2l0-0.6c-0.8-0.6-0.8-1.5-0.7-3.7
		c0.2-2.9,0-3.4-1.8-4.7c1.9-1.2,2.6-2,2.7-4.3c0.1-4-2.6-4.7-5.3-4.9l-8-0.6L146,283.6z"/>
	<path class="st3" d="M179.5,266.9c1.6-0.2,3.3,0,4.5,1c1.4,1,2.5,3,2.8,5.2c0.4,2.1-0.1,4.4-1.1,5.8c-0.9,1.3-2.4,2.1-4,2.4
		c-1.6,0.2-3.3,0-4.5-1c-1.4-1-2.5-3-2.8-5.2c-0.4-2.1,0.1-4.4,1.1-5.8C176.4,267.9,178,267.1,179.5,266.9 M179.2,264.8
		c-2.4,0.4-4.4,1.8-5.1,2.7c-2,2.3-2.3,5.4-1.9,7.9c0.4,2.5,1.7,5.3,4.3,6.9c1,0.6,3.3,1.3,5.7,1c2.4-0.4,4.4-1.8,5.1-2.7
		c2-2.3,2.3-5.4,1.9-7.9c-0.4-2.5-1.7-5.3-4.3-6.9C183.9,265.2,181.6,264.5,179.2,264.8"/>
	<polygon class="st3" points="196.8,279.4 199,278.7 196.4,271 204.4,268.2 203.7,266.3 195.7,269.1 193.9,263.7 203,260.6 
		202.3,258.7 191,262.6 	"/>
	<path class="st3" d="M226.3,251.4c-1.1-1-2.5-1.8-4.1-2.1c-1.1-0.2-3.3-0.1-5.2,1.1c-1.9,1.2-3,3.1-3.2,4.2
		c-0.7,2.8,0.3,5.7,1.6,7.9c1.3,2.2,3.6,4.3,6.4,4.9c1,0.2,3.3,0.1,5.2-1.1c1.9-1.2,3-3.1,3.2-4.2c0.5-2,0.2-4.1-0.5-5.9l-2,1.2
		c0.5,1.3,0.7,2.6,0.5,3.6c-0.2,1.5-1.1,2.7-2.2,3.4c-1.2,0.8-2.7,1-4.2,0.6c-1.5-0.5-3.3-1.9-4.4-3.8c-1.2-1.8-1.7-4-1.5-5.6
		c0.2-1.5,1.1-2.7,2.3-3.5c1.1-0.7,2.6-1,4-0.5c0.7,0.2,1.3,0.6,2,1.1L226.3,251.4z"/>
	<path class="st3" d="M233.1,240.6c1.2-1.1,2.8-1.7,4.4-1.6c1.7,0.1,3.8,1.2,5.2,2.8c1.5,1.6,2.3,3.7,2.3,5.4c0,1.6-0.9,3.1-2.1,4.2
		c-1.2,1.1-2.8,1.7-4.4,1.6c-1.7-0.1-3.8-1.2-5.2-2.8c-1.5-1.6-2.3-3.7-2.3-5.4C231.1,243.2,231.9,241.7,233.1,240.6 M231.7,239.1
		c-1.8,1.7-2.7,3.9-2.8,5c-0.4,3,1,5.8,2.7,7.7c1.7,1.9,4.3,3.5,7.3,3.5c1.1,0,3.4-0.7,5.3-2.3c1.8-1.7,2.7-3.9,2.8-5
		c0.4-3-1-5.8-2.7-7.7c-1.7-1.9-4.3-3.5-7.3-3.5C235.9,236.8,233.6,237.5,231.7,239.1"/>
	<polygon class="st3" points="260.4,234.4 251.7,221.8 263.3,230.5 264.7,228.6 250.5,217.9 248.5,220.5 257.5,233.7 242.3,228.7 
		240.4,231.3 254.6,242 256,240.1 244.5,231.4 259,236.2 	"/>
	<polygon class="st3" points="272.8,213.4 261.7,202.9 274.8,209 275.8,206.9 259.7,199.3 258.3,202.3 269.9,213.3 254,211.6 
		252.6,214.5 268.7,222.1 269.7,219.9 256.6,213.8 271.8,215.5 	"/>
	<polygon class="st3" points="278.3,199.9 281.6,187.6 279.7,187.1 276.9,197.2 271,195.6 273.5,186.3 271.6,185.7 269.1,195.1 
		263.6,193.6 266.3,183.9 264.3,183.4 261.1,195.3 	"/>
	<path class="st3" d="M268.1,171.4c0.2-1.4,0.8-3.5,3.8-2.9c2.3,0.5,2.5,2.1,2.3,3.6l-0.7,5.7l-6.1-0.8L268.1,171.4z M282.8,181.3
		l0.3-2.3l-7.6-0.9l0.7-5.8c0.5-3.7,3.6-2.3,5.7-2.2c0.7,0,1.4,0,2.3-0.2l0.3-2.7l-0.6-0.1c-0.7,0.7-1.5,0.7-3.8,0.5
		c-2.9-0.3-3.4-0.2-4.8,1.5c-1.1-1.9-1.8-2.7-4.2-2.9c-4-0.3-4.9,2.3-5.2,5.1l-1,7.9L282.8,181.3z"/>
	<path class="st3" d="M271,146.9c-1.4,0.5-2.8,1.3-3.8,2.6c-0.7,0.8-1.6,2.9-1.5,5.1c0.2,2.2,1.4,4.1,2.2,4.8
		c2.1,1.9,5.2,2.5,7.7,2.3c2.5-0.1,5.5-1.1,7.3-3.4c0.7-0.8,1.6-2.8,1.5-5.1c-0.2-2.2-1.4-4.1-2.2-4.8c-1.5-1.4-3.5-2.1-5.4-2.3
		l0.2,2.3c1.3,0.2,2.6,0.6,3.4,1.2c1.2,0.8,1.9,2.2,2,3.5c0.1,1.4-0.4,2.9-1.4,3.9c-1.2,1.1-3.3,2-5.4,2.1c-2.2,0.2-4.4-0.4-5.7-1.3
		c-1.2-0.9-1.9-2.3-2-3.7c-0.1-1.3,0.4-2.7,1.5-3.8c0.5-0.5,1.2-0.9,1.9-1.2L271,146.9z"/>
	<polygon class="st3" points="282.2,139.1 279.1,126.7 277.1,127.2 279.7,137.4 273.8,138.9 271.4,129.5 269.4,130 271.8,139.4 
		266.3,140.7 263.9,130.9 261.9,131.4 264.9,143.4 	"/>
</g>
</svg>
